<svg width="6" height="6" viewBox="0 0 6 6" fill="none" xmlns="http://www.w3.org/2000/svg">
    <path d="M3.17745 2.07005C3.33588 2.07005 3.46432 2.19848 3.46432 2.35691V2.64378C3.46432 2.80221 3.33588 2.93064 3.17745 2.93064C3.01902 2.93064 2.89059 2.80221 2.89059 2.64378V2.35691C2.89059 2.19848 3.01902 2.07005 3.17745 2.07005Z" fill="white"/>
    <path d="M3.17745 3.50436C3.33588 3.50436 3.46432 3.63279 3.46432 3.79122V4.07809C3.46432 4.23652 3.33588 4.36495 3.17745 4.36495C3.01902 4.36495 2.89059 4.23652 2.89059 4.07809V3.79122C2.89059 3.63279 3.01902 3.50436 3.17745 3.50436Z" fill="white"/>
    <path fill-rule="evenodd" clip-rule="evenodd" d="M4.56545 0.635742C4.71666 0.635738 4.84712 0.635733 4.95457 0.644512C5.06798 0.653778 5.18078 0.674236 5.28932 0.729541C5.45125 0.812048 5.58291 0.943701 5.66541 1.10563C5.72072 1.21417 5.74118 1.32697 5.75044 1.44038C5.75922 1.54783 5.75922 1.67828 5.75921 1.8295V2.57758C5.75921 2.77257 5.60114 2.93064 5.40615 2.93064H5.18549C5.02706 2.93064 4.89863 3.05907 4.89863 3.2175C4.89863 3.37593 5.02706 3.50436 5.18549 3.50436H5.40615C5.60114 3.50436 5.75921 3.66243 5.75921 3.85742V4.6055C5.75922 4.75672 5.75922 4.88717 5.75044 4.99462C5.74118 5.10803 5.72072 5.22083 5.66541 5.32937C5.58291 5.4913 5.45125 5.62295 5.28932 5.70546C5.18078 5.76077 5.06798 5.78122 4.95457 5.79049C4.84712 5.79927 4.71667 5.79926 4.56546 5.79926H1.21573C1.06451 5.79926 0.934062 5.79927 0.826613 5.79049C0.713204 5.78122 0.600404 5.76077 0.491861 5.70546C0.329932 5.62295 0.198279 5.4913 0.115772 5.32937C0.0604663 5.22083 0.0400085 5.10803 0.0307426 4.99462C0.0219637 4.88717 0.021968 4.75672 0.0219729 4.60551V3.85742C0.0219729 3.66243 0.180044 3.50436 0.375034 3.50436H0.595697C0.754127 3.50436 0.882559 3.37593 0.882559 3.2175C0.882559 3.05907 0.754127 2.93064 0.595697 2.93064H0.375034C0.180044 2.93064 0.0219729 2.77257 0.0219729 2.57758V1.82951C0.021968 1.67829 0.0219637 1.54783 0.0307426 1.44038C0.0400085 1.32697 0.0604663 1.21417 0.115772 1.10563C0.198279 0.943701 0.329932 0.812048 0.491861 0.729541C0.600404 0.674236 0.713204 0.653778 0.826613 0.644512C0.934061 0.635733 1.06451 0.635738 1.21572 0.635742H4.56545ZM3.46432 5.22553C3.46432 5.0671 3.33588 4.93867 3.17745 4.93867C3.01902 4.93867 2.89059 5.0671 2.89059 5.22553L1.22679 5.22553C1.0614 5.22553 0.954611 5.22531 0.873333 5.21867C0.795403 5.2123 0.76651 5.2015 0.752327 5.19427C0.69835 5.16677 0.654466 5.12288 0.626963 5.0689C0.619737 5.05472 0.608928 5.02583 0.602561 4.9479C0.59592 4.86662 0.595697 4.75983 0.595697 4.59444V4.07809C1.07099 4.07809 1.45628 3.69279 1.45628 3.2175C1.45628 2.74221 1.07099 2.35691 0.595697 2.35691L0.595697 1.84056C0.595697 1.67517 0.59592 1.56838 0.602561 1.4871C0.608928 1.40917 0.619737 1.38028 0.626963 1.3661C0.654466 1.31212 0.69835 1.26824 0.752327 1.24073C0.76651 1.23351 0.795403 1.2227 0.873333 1.21633C0.954611 1.20969 1.0614 1.20947 1.22679 1.20947L2.89059 1.20947C2.89059 1.3679 3.01902 1.49633 3.17745 1.49633C3.33588 1.49633 3.46432 1.3679 3.46432 1.20947L4.55439 1.20947C4.71978 1.20947 4.82657 1.20969 4.90785 1.21633C4.98578 1.2227 5.01468 1.23351 5.02886 1.24073C5.08284 1.26824 5.12672 1.31212 5.15422 1.3661C5.16145 1.38028 5.17226 1.40917 5.17862 1.4871C5.18527 1.56838 5.18549 1.67517 5.18549 1.84056V2.35691C4.7102 2.35691 4.3249 2.74221 4.3249 3.2175C4.3249 3.69279 4.7102 4.07809 5.18549 4.07809V4.59444C5.18549 4.75983 5.18527 4.86662 5.17862 4.9479C5.17226 5.02583 5.16145 5.05472 5.15422 5.0689C5.12672 5.12288 5.08284 5.16677 5.02886 5.19427C5.01468 5.2015 4.98578 5.2123 4.90785 5.21867C4.82657 5.22531 4.71978 5.22553 4.55439 5.22553L3.46432 5.22553Z" fill="white"/>
    </svg>
    